<svg xmlns="http://www.w3.org/2000/svg" width="1600" height="1000" viewBox="0 0 1600 1000"><style>text{font-family:Consolas,Menlo,monospace;font-size:20px}</style><g id="c0"><animateTransform attributeName="transform" type="translate" from="0 0" to="0 1000" dur="47.7s" repeatCount="indefinite" begin="-5.4s"/><text x="1149" y="0" fill="#7FA3C9" fill-opacity="0.06">8</text><text x="1149" y="1000" fill="#7FA3C9" fill-opacity="0.07">ヤ</text><text x="1149" y="44" fill="#7FA3C9" fill-opacity="0.09">F</text><text x="1149" y="88" fill="#7FA3C9" fill-opacity="0.09">オ</text><text x="1149" y="132" fill="#59A0A0" fill-opacity="0.09">1</text><text x="1149" y="176" fill="#7FA3C9" fill-opacity="0.09">シ</text><text x="1149" y="220" fill="#59A0A0" fill-opacity="0.09">ウ</text><text x="1149" y="264" fill="#7FA3C9" fill-opacity="0.09">ヤ</text><text x="1149" y="308" fill="#7FA3C9" fill-opacity="0.08">A</text><text x="1149" y="352" fill="#7FA3C9" fill-opacity="0.1">オ</text><text x="1149" y="396" fill="#7FA3C9" fill-opacity="0.09">D</text><text x="1149" y="440" fill="#59A0A0" fill-opacity="0.11">0</text><text x="1149" y="484" fill="#7FA3C9" fill-opacity="0.08">8</text><text x="1149" y="528" fill="#59A0A0" fill-opacity="0.11">9</text><text x="1149" y="573" fill="#7FA3C9" fill-opacity="0.07">ニ</text><text x="1149" y="617" fill="#7FA3C9" fill-opacity="0.1">リ</text><text x="1149" y="661" fill="#7FA3C9" fill-opacity="0.06">0</text><text x="1149" y="705" fill="#7FA3C9" fill-opacity="0.07">0</text><text x="1149" y="749" fill="#7FA3C9" fill-opacity="0.07">ミ</text><text x="1149" y="793" fill="#7FA3C9" fill-opacity="0.08">サ</text><text x="1149" y="837" fill="#7FA3C9" fill-opacity="0.09">エ</text><text x="1149" y="881" fill="#59A0A0" fill-opacity="0.1">マ</text><text x="1149" y="925" fill="#7FA3C9" fill-opacity="0.09">ミ</text><text x="1149" y="969" fill="#7FA3C9" fill-opacity="0.07">ラ</text></g><g id="c1"><animateTransform attributeName="transform" type="translate" from="0 0" to="0 1000" dur="39.5s" repeatCount="indefinite" begin="-33.7s"/><text x="834" y="0" fill="#7FA3C9" fill-opacity="0.07">シ</text><text x="834" y="1000" fill="#7FA3C9" fill-opacity="0.1">キ</text><text x="834" y="42" fill="#7FA3C9" fill-opacity="0.09">オ</text><text x="834" y="84" fill="#7FA3C9" fill-opacity="0.08">エ</text><text x="834" y="126" fill="#7FA3C9" fill-opacity="0.09">ハ</text><text x="834" y="168" fill="#7FA3C9" fill-opacity="0.09">E</text><text x="834" y="210" fill="#7FA3C9" fill-opacity="0.08">8</text><text x="834" y="252" fill="#7FA3C9" fill-opacity="0.09">サ</text><text x="834" y="294" fill="#7FA3C9" fill-opacity="0.1">8</text><text x="834" y="335" fill="#7FA3C9" fill-opacity="0.06">ン</text><text x="834" y="377" fill="#7FA3C9" fill-opacity="0.07">ヤ</text><text x="834" y="419" fill="#7FA3C9" fill-opacity="0.06">エ</text><text x="834" y="461" fill="#59A0A0" fill-opacity="0.1">オ</text><text x="834" y="503" fill="#7FA3C9" fill-opacity="0.1">D</text><text x="834" y="545" fill="#7FA3C9" fill-opacity="0.08">ウ</text><text x="834" y="587" fill="#7FA3C9" fill-opacity="0.06">タ</text><text x="834" y="629" fill="#7FA3C9" fill-opacity="0.09">7</text><text x="834" y="671" fill="#59A0A0" fill-opacity="0.08">マ</text><text x="834" y="713" fill="#7FA3C9" fill-opacity="0.09">0</text><text x="834" y="755" fill="#7FA3C9" fill-opacity="0.08">シ</text><text x="834" y="797" fill="#7FA3C9" fill-opacity="0.09">F</text><text x="834" y="839" fill="#7FA3C9" fill-opacity="0.08">ア</text><text x="834" y="881" fill="#7FA3C9" fill-opacity="0.08">0</text><text x="834" y="923" fill="#7FA3C9" fill-opacity="0.08">B</text><text x="834" y="965" fill="#7FA3C9" fill-opacity="0.1">ラ</text></g><g id="c2"><animateTransform attributeName="transform" type="translate" from="0 0" to="0 1000" dur="54.3s" repeatCount="indefinite" begin="-16.4s"/><text x="1065" y="0" fill="#7FA3C9" fill-opacity="0.07">A</text><text x="1065" y="1000" fill="#7FA3C9" fill-opacity="0.09">エ</text><text x="1065" y="41" fill="#7FA3C9" fill-opacity="0.09">カ</text><text x="1065" y="82" fill="#7FA3C9" fill-opacity="0.09">ハ</text><text x="1065" y="124" fill="#7FA3C9" fill-opacity="0.07">0</text><text x="1065" y="165" fill="#7FA3C9" fill-opacity="0.06">B</text><text x="1065" y="206" fill="#7FA3C9" fill-opacity="0.08">1</text><text x="1065" y="247" fill="#7FA3C9" fill-opacity="0.07">カ</text><text x="1065" y="288" fill="#7FA3C9" fill-opacity="0.08">ニ</text><text x="1065" y="330" fill="#7FA3C9" fill-opacity="0.06">ヤ</text><text x="1065" y="371" fill="#7FA3C9" fill-opacity="0.09">ハ</text><text x="1065" y="412" fill="#59A0A0" fill-opacity="0.1">ニ</text><text x="1065" y="453" fill="#7FA3C9" fill-opacity="0.08">シ</text><text x="1065" y="494" fill="#7FA3C9" fill-opacity="0.1">ン</text><text x="1065" y="536" fill="#7FA3C9" fill-opacity="0.06">ウ</text><text x="1065" y="577" fill="#7FA3C9" fill-opacity="0.07">ニ</text><text x="1065" y="618" fill="#7FA3C9" fill-opacity="0.06">0</text><text x="1065" y="659" fill="#7FA3C9" fill-opacity="0.07">イ</text><text x="1065" y="700" fill="#7FA3C9" fill-opacity="0.06">B</text><text x="1065" y="742" fill="#7FA3C9" fill-opacity="0.09">リ</text><text x="1065" y="783" fill="#7FA3C9" fill-opacity="0.09">ン</text><text x="1065" y="824" fill="#59A0A0" fill-opacity="0.09">ア</text><text x="1065" y="865" fill="#7FA3C9" fill-opacity="0.07">カ</text><text x="1065" y="906" fill="#7FA3C9" fill-opacity="0.08">0</text><text x="1065" y="948" fill="#7FA3C9" fill-opacity="0.08">リ</text><text x="1065" y="989" fill="#7FA3C9" fill-opacity="0.08">ヤ</text></g><g id="c3"><animateTransform attributeName="transform" type="translate" from="0 0" to="0 1000" dur="37.9s" repeatCount="indefinite" begin="-5.3s"/><text x="228" y="0" fill="#7FA3C9" fill-opacity="0.07">D</text><text x="228" y="1000" fill="#7FA3C9" fill-opacity="0.09">ン</text><text x="228" y="46" fill="#7FA3C9" fill-opacity="0.09">0</text><text x="228" y="91" fill="#7FA3C9" fill-opacity="0.09">1</text><text x="228" y="137" fill="#7FA3C9" fill-opacity="0.07">ニ</text><text x="228" y="183" fill="#7FA3C9" fill-opacity="0.07">9</text><text x="228" y="228" fill="#7FA3C9" fill-opacity="0.08">オ</text><text x="228" y="274" fill="#7FA3C9" fill-opacity="0.08">C</text><text x="228" y="320" fill="#7FA3C9" fill-opacity="0.07">C</text><text x="228" y="365" fill="#7FA3C9" fill-opacity="0.09">オ</text><text x="228" y="411" fill="#59A0A0" fill-opacity="0.08">ニ</text><text x="228" y="457" fill="#7FA3C9" fill-opacity="0.09">キ</text><text x="228" y="503" fill="#7FA3C9" fill-opacity="0.06">イ</text><text x="228" y="548" fill="#59A0A0" fill-opacity="0.1">ワ</text><text x="228" y="594" fill="#7FA3C9" fill-opacity="0.08">リ</text><text x="228" y="640" fill="#7FA3C9" fill-opacity="0.08">0</text><text x="228" y="685" fill="#7FA3C9" fill-opacity="0.07">ン</text><text x="228" y="731" fill="#7FA3C9" fill-opacity="0.09">D</text><text x="228" y="777" fill="#7FA3C9" fill-opacity="0.07">8</text><text x="228" y="822" fill="#7FA3C9" fill-opacity="0.06">オ</text><text x="228" y="868" fill="#7FA3C9" fill-opacity="0.09">カ</text><text x="228" y="914" fill="#7FA3C9" fill-opacity="0.09">0</text><text x="228" y="959" fill="#7FA3C9" fill-opacity="0.1">C</text></g><g id="c4"><animateTransform attributeName="transform" type="translate" from="0 0" to="0 1000" dur="40.5s" repeatCount="indefinite" begin="-32.4s"/><text x="537" y="0" fill="#7FA3C9" fill-opacity="0.08">イ</text><text x="537" y="1000" fill="#7FA3C9" fill-opacity="0.07">シ</text><text x="537" y="41" fill="#7FA3C9" fill-opacity="0.06">ミ</text><text x="537" y="83" fill="#7FA3C9" fill-opacity="0.09">B</text><text x="537" y="124" fill="#7FA3C9" fill-opacity="0.09">1</text><text x="537" y="166" fill="#7FA3C9" fill-opacity="0.06">7</text><text x="537" y="207" fill="#7FA3C9" fill-opacity="0.09">0</text><text x="537" y="249" fill="#7FA3C9" fill-opacity="0.08">1</text><text x="537" y="290" fill="#7FA3C9" fill-opacity="0.06">ハ</text><text x="537" y="332" fill="#7FA3C9" fill-opacity="0.09">ウ</text><text x="537" y="373" fill="#7FA3C9" fill-opacity="0.1">ナ</text><text x="537" y="414" fill="#7FA3C9" fill-opacity="0.09">9</text><text x="537" y="456" fill="#7FA3C9" fill-opacity="0.08">ハ</text><text x="537" y="497" fill="#7FA3C9" fill-opacity="0.1">シ</text><text x="537" y="539" fill="#7FA3C9" fill-opacity="0.07">ワ</text><text x="537" y="580" fill="#7FA3C9" fill-opacity="0.06">イ</text><text x="537" y="622" fill="#7FA3C9" fill-opacity="0.09">キ</text><text x="537" y="663" fill="#7FA3C9" fill-opacity="0.07">オ</text><text x="537" y="705" fill="#7FA3C9" fill-opacity="0.06">0</text><text x="537" y="746" fill="#7FA3C9" fill-opacity="0.06">イ</text><text x="537" y="787" fill="#7FA3C9" fill-opacity="0.09">イ</text><text x="537" y="829" fill="#7FA3C9" fill-opacity="0.08">1</text><text x="537" y="870" fill="#7FA3C9" fill-opacity="0.07">A</text><text x="537" y="912" fill="#7FA3C9" fill-opacity="0.07">B</text><text x="537" y="953" fill="#7FA3C9" fill-opacity="0.08">ラ</text><text x="537" y="995" fill="#59A0A0" fill-opacity="0.09">マ</text></g><g id="c5"><animateTransform attributeName="transform" type="translate" from="0 0" to="0 1000" dur="44.8s" repeatCount="indefinite" begin="-40.4s"/><text x="27" y="0" fill="#7FA3C9" fill-opacity="0.09">0</text><text x="27" y="1000" fill="#7FA3C9" fill-opacity="0.06">D</text><text x="27" y="41" fill="#7FA3C9" fill-opacity="0.07">ナ</text><text x="27" y="83" fill="#7FA3C9" fill-opacity="0.08">7</text><text x="27" y="124" fill="#7FA3C9" fill-opacity="0.09">サ</text><text x="27" y="165" fill="#7FA3C9" fill-opacity="0.09">C</text><text x="27" y="206" fill="#7FA3C9" fill-opacity="0.08">エ</text><text x="27" y="248" fill="#7FA3C9" fill-opacity="0.07">リ</text><text x="27" y="289" fill="#7FA3C9" fill-opacity="0.08">7</text><text x="27" y="330" fill="#7FA3C9" fill-opacity="0.09">ナ</text><text x="27" y="372" fill="#7FA3C9" fill-opacity="0.06">F</text><text x="27" y="413" fill="#7FA3C9" fill-opacity="0.08">リ</text><text x="27" y="454" fill="#7FA3C9" fill-opacity="0.07">1</text><text x="27" y="495" fill="#59A0A0" fill-opacity="0.1">ラ</text><text x="27" y="537" fill="#7FA3C9" fill-opacity="0.07">リ</text><text x="27" y="578" fill="#7FA3C9" fill-opacity="0.07">リ</text><text x="27" y="619" fill="#7FA3C9" fill-opacity="0.06">ナ</text><text x="27" y="661" fill="#7FA3C9" fill-opacity="0.07">1</text><text x="27" y="702" fill="#7FA3C9" fill-opacity="0.1">1</text><text x="27" y="743" fill="#7FA3C9" fill-opacity="0.1">8</text><text x="27" y="784" fill="#7FA3C9" fill-opacity="0.07">0</text><text x="27" y="826" fill="#7FA3C9" fill-opacity="0.08">F</text><text x="27" y="867" fill="#7FA3C9" fill-opacity="0.08">1</text><text x="27" y="908" fill="#7FA3C9" fill-opacity="0.1">C</text><text x="27" y="949" fill="#7FA3C9" fill-opacity="0.07">0</text><text x="27" y="991" fill="#7FA3C9" fill-opacity="0.08">オ</text></g><g id="c6"><animateTransform attributeName="transform" type="translate" from="0 0" to="0 1000" dur="34.0s" repeatCount="indefinite" begin="-32.0s"/><text x="1481" y="0" fill="#7FA3C9" fill-opacity="0.07">B</text><text x="1481" y="1000" fill="#7FA3C9" fill-opacity="0.08">9</text><text x="1481" y="46" fill="#7FA3C9" fill-opacity="0.09">オ</text><text x="1481" y="91" fill="#7FA3C9" fill-opacity="0.1">ア</text><text x="1481" y="137" fill="#7FA3C9" fill-opacity="0.09">エ</text><text x="1481" y="182" fill="#7FA3C9" fill-opacity="0.08">イ</text><text x="1481" y="228" fill="#7FA3C9" fill-opacity="0.09">ン</text><text x="1481" y="274" fill="#7FA3C9" fill-opacity="0.07">オ</text><text x="1481" y="319" fill="#7FA3C9" fill-opacity="0.07">D</text><text x="1481" y="365" fill="#7FA3C9" fill-opacity="0.09">7</text><text x="1481" y="411" fill="#7FA3C9" fill-opacity="0.09">B</text><text x="1481" y="456" fill="#7FA3C9" fill-opacity="0.09">カ</text><text x="1481" y="502" fill="#59A0A0" fill-opacity="0.09">ン</text><text x="1481" y="547" fill="#7FA3C9" fill-opacity="0.07">マ</text><text x="1481" y="593" fill="#59A0A0" fill-opacity="0.1">ワ</text><text x="1481" y="639" fill="#7FA3C9" fill-opacity="0.07">エ</text><text x="1481" y="684" fill="#7FA3C9" fill-opacity="0.08">B</text><text x="1481" y="730" fill="#7FA3C9" fill-opacity="0.08">ミ</text><text x="1481" y="776" fill="#7FA3C9" fill-opacity="0.09">ヤ</text><text x="1481" y="821" fill="#7FA3C9" fill-opacity="0.09">エ</text><text x="1481" y="867" fill="#7FA3C9" fill-opacity="0.07">0</text><text x="1481" y="912" fill="#7FA3C9" fill-opacity="0.08">サ</text><text x="1481" y="958" fill="#7FA3C9" fill-opacity="0.08">ナ</text></g><g id="c7"><animateTransform attributeName="transform" type="translate" from="0 0" to="0 1000" dur="41.6s" repeatCount="indefinite" begin="-23.2s"/><text x="1296" y="0" fill="#7FA3C9" fill-opacity="0.06">A</text><text x="1296" y="1000" fill="#7FA3C9" fill-opacity="0.09">F</text><text x="1296" y="42" fill="#7FA3C9" fill-opacity="0.07">マ</text><text x="1296" y="85" fill="#7FA3C9" fill-opacity="0.07">1</text><text x="1296" y="127" fill="#7FA3C9" fill-opacity="0.1">オ</text><text x="1296" y="169" fill="#7FA3C9" fill-opacity="0.08">キ</text><text x="1296" y="212" fill="#7FA3C9" fill-opacity="0.09">1</text><text x="1296" y="254" fill="#7FA3C9" fill-opacity="0.06">A</text><text x="1296" y="296" fill="#7FA3C9" fill-opacity="0.09">ハ</text><text x="1296" y="338" fill="#59A0A0" fill-opacity="0.08">タ</text><text x="1296" y="381" fill="#7FA3C9" fill-opacity="0.07">エ</text><text x="1296" y="423" fill="#7FA3C9" fill-opacity="0.06">0</text><text x="1296" y="465" fill="#7FA3C9" fill-opacity="0.09">ウ</text><text x="1296" y="508" fill="#7FA3C9" fill-opacity="0.09">1</text><text x="1296" y="550" fill="#7FA3C9" fill-opacity="0.08">ハ</text><text x="1296" y="592" fill="#7FA3C9" fill-opacity="0.09">0</text><text x="1296" y="635" fill="#7FA3C9" fill-opacity="0.07">マ</text><text x="1296" y="677" fill="#7FA3C9" fill-opacity="0.07">キ</text><text x="1296" y="719" fill="#7FA3C9" fill-opacity="0.09">0</text><text x="1296" y="762" fill="#7FA3C9" fill-opacity="0.08">0</text><text x="1296" y="804" fill="#7FA3C9" fill-opacity="0.08">オ</text><text x="1296" y="846" fill="#7FA3C9" fill-opacity="0.09">サ</text><text x="1296" y="889" fill="#7FA3C9" fill-opacity="0.1">マ</text><text x="1296" y="931" fill="#7FA3C9" fill-opacity="0.09">1</text><text x="1296" y="973" fill="#7FA3C9" fill-opacity="0.09">1</text></g><g id="c8"><animateTransform attributeName="transform" type="translate" from="0 0" to="0 1000" dur="31.9s" repeatCount="indefinite" begin="-17.7s"/><text x="152" y="0" fill="#7FA3C9" fill-opacity="0.1">9</text><text x="152" y="1000" fill="#7FA3C9" fill-opacity="0.1">ミ</text><text x="152" y="43" fill="#59A0A0" fill-opacity="0.09">ミ</text><text x="152" y="85" fill="#7FA3C9" fill-opacity="0.09">D</text><text x="152" y="128" fill="#7FA3C9" fill-opacity="0.07">7</text><text x="152" y="170" fill="#7FA3C9" fill-opacity="0.09">D</text><text x="152" y="213" fill="#7FA3C9" fill-opacity="0.1">オ</text><text x="152" y="256" fill="#7FA3C9" fill-opacity="0.07">B</text><text x="152" y="298" fill="#7FA3C9" fill-opacity="0.08">1</text><text x="152" y="341" fill="#7FA3C9" fill-opacity="0.09">ン</text><text x="152" y="384" fill="#7FA3C9" fill-opacity="0.06">0</text><text x="152" y="426" fill="#7FA3C9" fill-opacity="0.08">A</text><text x="152" y="469" fill="#7FA3C9" fill-opacity="0.07">エ</text><text x="152" y="511" fill="#7FA3C9" fill-opacity="0.08">B</text><text x="152" y="554" fill="#7FA3C9" fill-opacity="0.09">マ</text><text x="152" y="597" fill="#7FA3C9" fill-opacity="0.09">ア</text><text x="152" y="639" fill="#59A0A0" fill-opacity="0.1">9</text><text x="152" y="682" fill="#7FA3C9" fill-opacity="0.09">A</text><text x="152" y="725" fill="#7FA3C9" fill-opacity="0.07">8</text><text x="152" y="767" fill="#7FA3C9" fill-opacity="0.06">カ</text><text x="152" y="810" fill="#7FA3C9" fill-opacity="0.08">ハ</text><text x="152" y="852" fill="#7FA3C9" fill-opacity="0.09">0</text><text x="152" y="895" fill="#7FA3C9" fill-opacity="0.1">ン</text><text x="152" y="938" fill="#7FA3C9" fill-opacity="0.08">F</text><text x="152" y="980" fill="#7FA3C9" fill-opacity="0.07">C</text></g><g id="c9"><animateTransform attributeName="transform" type="translate" from="0 0" to="0 1000" dur="35.1s" repeatCount="indefinite" begin="-32.2s"/><text x="1207" y="0" fill="#7FA3C9" fill-opacity="0.07">0</text><text x="1207" y="1000" fill="#59A0A0" fill-opacity="0.09">ラ</text><text x="1207" y="43" fill="#59A0A0" fill-opacity="0.1">ニ</text><text x="1207" y="86" fill="#7FA3C9" fill-opacity="0.08">カ</text><text x="1207" y="129" fill="#7FA3C9" fill-opacity="0.08">ア</text><text x="1207" y="171" fill="#7FA3C9" fill-opacity="0.1">8</text><text x="1207" y="214" fill="#7FA3C9" fill-opacity="0.06">1</text><text x="1207" y="257" fill="#7FA3C9" fill-opacity="0.08">ニ</text><text x="1207" y="300" fill="#59A0A0" fill-opacity="0.1">マ</text><text x="1207" y="343" fill="#7FA3C9" fill-opacity="0.07">7</text><text x="1207" y="386" fill="#7FA3C9" fill-opacity="0.09">サ</text><text x="1207" y="429" fill="#7FA3C9" fill-opacity="0.08">A</text><text x="1207" y="472" fill="#7FA3C9" fill-opacity="0.08">ワ</text><text x="1207" y="514" fill="#7FA3C9" fill-opacity="0.08">ワ</text><text x="1207" y="557" fill="#7FA3C9" fill-opacity="0.06">0</text><text x="1207" y="600" fill="#7FA3C9" fill-opacity="0.09">0</text><text x="1207" y="643" fill="#7FA3C9" fill-opacity="0.1">ラ</text><text x="1207" y="686" fill="#7FA3C9" fill-opacity="0.06">C</text><text x="1207" y="729" fill="#7FA3C9" fill-opacity="0.09">ラ</text><text x="1207" y="772" fill="#7FA3C9" fill-opacity="0.06">0</text><text x="1207" y="815" fill="#7FA3C9" fill-opacity="0.08">ア</text><text x="1207" y="857" fill="#59A0A0" fill-opacity="0.11">E</text><text x="1207" y="900" fill="#7FA3C9" fill-opacity="0.09">9</text><text x="1207" y="943" fill="#7FA3C9" fill-opacity="0.08">1</text><text x="1207" y="986" fill="#7FA3C9" fill-opacity="0.08">ウ</text></g><g id="c10"><animateTransform attributeName="transform" type="translate" from="0 0" to="0 1000" dur="52.0s" repeatCount="indefinite" begin="-44.5s"/><text x="321" y="0" fill="#7FA3C9" fill-opacity="0.06">イ</text><text x="321" y="1000" fill="#7FA3C9" fill-opacity="0.07">タ</text><text x="321" y="46" fill="#7FA3C9" fill-opacity="0.08">エ</text><text x="321" y="92" fill="#7FA3C9" fill-opacity="0.07">マ</text><text x="321" y="138" fill="#7FA3C9" fill-opacity="0.08">C</text><text x="321" y="183" fill="#7FA3C9" fill-opacity="0.1">1</text><text x="321" y="229" fill="#7FA3C9" fill-opacity="0.07">カ</text><text x="321" y="275" fill="#7FA3C9" fill-opacity="0.07">カ</text><text x="321" y="321" fill="#7FA3C9" fill-opacity="0.1">0</text><text x="321" y="367" fill="#7FA3C9" fill-opacity="0.08">1</text><text x="321" y="413" fill="#7FA3C9" fill-opacity="0.09">7</text><text x="321" y="459" fill="#7FA3C9" fill-opacity="0.09">1</text><text x="321" y="504" fill="#7FA3C9" fill-opacity="0.1">C</text><text x="321" y="550" fill="#7FA3C9" fill-opacity="0.09">8</text><text x="321" y="596" fill="#59A0A0" fill-opacity="0.09">9</text><text x="321" y="642" fill="#7FA3C9" fill-opacity="0.08">タ</text><text x="321" y="688" fill="#7FA3C9" fill-opacity="0.1">1</text><text x="321" y="734" fill="#59A0A0" fill-opacity="0.09">9</text><text x="321" y="780" fill="#7FA3C9" fill-opacity="0.08">1</text><text x="321" y="825" fill="#7FA3C9" fill-opacity="0.09">オ</text><text x="321" y="871" fill="#7FA3C9" fill-opacity="0.07">D</text><text x="321" y="917" fill="#7FA3C9" fill-opacity="0.1">ワ</text><text x="321" y="963" fill="#7FA3C9" fill-opacity="0.1">ナ</text></g><g id="c11"><animateTransform attributeName="transform" type="translate" from="0 0" to="0 1000" dur="36.1s" repeatCount="indefinite" begin="-1.9s"/><text x="1555" y="0" fill="#7FA3C9" fill-opacity="0.1">D</text><text x="1555" y="1000" fill="#7FA3C9" fill-opacity="0.09">ウ</text><text x="1555" y="41" fill="#59A0A0" fill-opacity="0.1">ハ</text><text x="1555" y="81" fill="#7FA3C9" fill-opacity="0.09">E</text><text x="1555" y="122" fill="#7FA3C9" fill-opacity="0.07">ラ</text><text x="1555" y="163" fill="#7FA3C9" fill-opacity="0.09">ウ</text><text x="1555" y="203" fill="#7FA3C9" fill-opacity="0.08">A</text><text x="1555" y="244" fill="#7FA3C9" fill-opacity="0.07">ラ</text><text x="1555" y="285" fill="#7FA3C9" fill-opacity="0.09">7</text><text x="1555" y="325" fill="#7FA3C9" fill-opacity="0.06">マ</text><text x="1555" y="366" fill="#7FA3C9" fill-opacity="0.09">サ</text><text x="1555" y="407" fill="#7FA3C9" fill-opacity="0.1">イ</text><text x="1555" y="447" fill="#59A0A0" fill-opacity="0.1">A</text><text x="1555" y="488" fill="#7FA3C9" fill-opacity="0.09">B</text><text x="1555" y="529" fill="#7FA3C9" fill-opacity="0.07">ハ</text><text x="1555" y="569" fill="#7FA3C9" fill-opacity="0.07">カ</text><text x="1555" y="610" fill="#7FA3C9" fill-opacity="0.06">D</text><text x="1555" y="651" fill="#59A0A0" fill-opacity="0.11">0</text><text x="1555" y="691" fill="#7FA3C9" fill-opacity="0.1">サ</text><text x="1555" y="732" fill="#7FA3C9" fill-opacity="0.09">1</text><text x="1555" y="773" fill="#7FA3C9" fill-opacity="0.06">ワ</text><text x="1555" y="813" fill="#7FA3C9" fill-opacity="0.07">ウ</text><text x="1555" y="854" fill="#7FA3C9" fill-opacity="0.07">サ</text><text x="1555" y="895" fill="#7FA3C9" fill-opacity="0.07">イ</text><text x="1555" y="935" fill="#7FA3C9" fill-opacity="0.07">1</text><text x="1555" y="976" fill="#7FA3C9" fill-opacity="0.09">タ</text></g><g id="c12"><animateTransform attributeName="transform" type="translate" from="0 0" to="0 1000" dur="33.3s" repeatCount="indefinite" begin="-16.7s"/><text x="777" y="0" fill="#7FA3C9" fill-opacity="0.1">ミ</text><text x="777" y="1000" fill="#59A0A0" fill-opacity="0.1">1</text><text x="777" y="41" fill="#7FA3C9" fill-opacity="0.06">オ</text><text x="777" y="83" fill="#7FA3C9" fill-opacity="0.07">7</text><text x="777" y="124" fill="#7FA3C9" fill-opacity="0.06">0</text><text x="777" y="165" fill="#7FA3C9" fill-opacity="0.09">B</text><text x="777" y="207" fill="#7FA3C9" fill-opacity="0.09">ウ</text><text x="777" y="248" fill="#7FA3C9" fill-opacity="0.07">シ</text><text x="777" y="290" fill="#7FA3C9" fill-opacity="0.07">キ</text><text x="777" y="331" fill="#7FA3C9" fill-opacity="0.09">リ</text><text x="777" y="372" fill="#7FA3C9" fill-opacity="0.08">ヤ</text><text x="777" y="414" fill="#59A0A0" fill-opacity="0.11">エ</text><text x="777" y="455" fill="#7FA3C9" fill-opacity="0.06">C</text><text x="777" y="496" fill="#7FA3C9" fill-opacity="0.09">リ</text><text x="777" y="538" fill="#7FA3C9" fill-opacity="0.09">F</text><text x="777" y="579" fill="#7FA3C9" fill-opacity="0.08">ア</text><text x="777" y="621" fill="#7FA3C9" fill-opacity="0.09">0</text><text x="777" y="662" fill="#7FA3C9" fill-opacity="0.07">1</text><text x="777" y="703" fill="#7FA3C9" fill-opacity="0.07">ウ</text><text x="777" y="745" fill="#7FA3C9" fill-opacity="0.09">ナ</text><text x="777" y="786" fill="#7FA3C9" fill-opacity="0.07">0</text><text x="777" y="827" fill="#7FA3C9" fill-opacity="0.07">カ</text><text x="777" y="869" fill="#7FA3C9" fill-opacity="0.08">エ</text><text x="777" y="910" fill="#7FA3C9" fill-opacity="0.09">ン</text><text x="777" y="952" fill="#7FA3C9" fill-opacity="0.09">0</text><text x="777" y="993" fill="#7FA3C9" fill-opacity="0.08">C</text></g><g id="c13"><animateTransform attributeName="transform" type="translate" from="0 0" to="0 1000" dur="35.3s" repeatCount="indefinite" begin="-10.2s"/><text x="593" y="0" fill="#59A0A0" fill-opacity="0.1">A</text><text x="593" y="1000" fill="#59A0A0" fill-opacity="0.1">ミ</text><text x="593" y="47" fill="#7FA3C9" fill-opacity="0.09">0</text><text x="593" y="93" fill="#7FA3C9" fill-opacity="0.09">1</text><text x="593" y="140" fill="#7FA3C9" fill-opacity="0.07">B</text><text x="593" y="186" fill="#7FA3C9" fill-opacity="0.07">イ</text><text x="593" y="233" fill="#7FA3C9" fill-opacity="0.08">D</text><text x="593" y="279" fill="#7FA3C9" fill-opacity="0.06">0</text><text x="593" y="326" fill="#7FA3C9" fill-opacity="0.06">ウ</text><text x="593" y="372" fill="#7FA3C9" fill-opacity="0.1">ウ</text><text x="593" y="419" fill="#7FA3C9" fill-opacity="0.1">オ</text><text x="593" y="466" fill="#7FA3C9" fill-opacity="0.08">リ</text><text x="593" y="512" fill="#7FA3C9" fill-opacity="0.07">ナ</text><text x="593" y="559" fill="#7FA3C9" fill-opacity="0.08">ア</text><text x="593" y="605" fill="#7FA3C9" fill-opacity="0.1">サ</text><text x="593" y="652" fill="#7FA3C9" fill-opacity="0.06">ン</text><text x="593" y="698" fill="#59A0A0" fill-opacity="0.11">キ</text><text x="593" y="745" fill="#7FA3C9" fill-opacity="0.06">ア</text><text x="593" y="792" fill="#7FA3C9" fill-opacity="0.1">マ</text><text x="593" y="838" fill="#7FA3C9" fill-opacity="0.07">リ</text><text x="593" y="885" fill="#7FA3C9" fill-opacity="0.1">ワ</text><text x="593" y="931" fill="#59A0A0" fill-opacity="0.09">ニ</text><text x="593" y="978" fill="#7FA3C9" fill-opacity="0.07">0</text></g><g id="c14"><animateTransform attributeName="transform" type="translate" from="0 0" to="0 1000" dur="40.5s" repeatCount="indefinite" begin="-37.5s"/><text x="993" y="0" fill="#59A0A0" fill-opacity="0.09">E</text><text x="993" y="1000" fill="#7FA3C9" fill-opacity="0.08">シ</text><text x="993" y="41" fill="#7FA3C9" fill-opacity="0.08">ハ</text><text x="993" y="82" fill="#7FA3C9" fill-opacity="0.1">カ</text><text x="993" y="123" fill="#7FA3C9" fill-opacity="0.06">1</text><text x="993" y="164" fill="#7FA3C9" fill-opacity="0.1">ヤ</text><text x="993" y="205" fill="#7FA3C9" fill-opacity="0.08">B</text><text x="993" y="246" fill="#7FA3C9" fill-opacity="0.07">タ</text><text x="993" y="287" fill="#59A0A0" fill-opacity="0.09">マ</text><text x="993" y="328" fill="#7FA3C9" fill-opacity="0.08">1</text><text x="993" y="369" fill="#7FA3C9" fill-opacity="0.09">マ</text><text x="993" y="410" fill="#7FA3C9" fill-opacity="0.09">シ</text><text x="993" y="451" fill="#7FA3C9" fill-opacity="0.09">B</text><text x="993" y="492" fill="#7FA3C9" fill-opacity="0.1">リ</text><text x="993" y="533" fill="#7FA3C9" fill-opacity="0.09">ワ</text><text x="993" y="574" fill="#7FA3C9" fill-opacity="0.09">エ</text><text x="993" y="614" fill="#59A0A0" fill-opacity="0.1">A</text><text x="993" y="655" fill="#7FA3C9" fill-opacity="0.1">0</text><text x="993" y="696" fill="#7FA3C9" fill-opacity="0.09">キ</text><text x="993" y="737" fill="#7FA3C9" fill-opacity="0.09">ラ</text><text x="993" y="778" fill="#7FA3C9" fill-opacity="0.06">0</text><text x="993" y="819" fill="#7FA3C9" fill-opacity="0.1">8</text><text x="993" y="860" fill="#7FA3C9" fill-opacity="0.09">C</text><text x="993" y="901" fill="#7FA3C9" fill-opacity="0.08">1</text><text x="993" y="942" fill="#7FA3C9" fill-opacity="0.09">C</text><text x="993" y="983" fill="#7FA3C9" fill-opacity="0.09">ウ</text></g><g id="c15"><animateTransform attributeName="transform" type="translate" from="0 0" to="0 1000" dur="32.7s" repeatCount="indefinite" begin="-31.9s"/><text x="917" y="0" fill="#7FA3C9" fill-opacity="0.07">F</text><text x="917" y="1000" fill="#7FA3C9" fill-opacity="0.08">0</text><text x="917" y="44" fill="#7FA3C9" fill-opacity="0.1">エ</text><text x="917" y="87" fill="#59A0A0" fill-opacity="0.1">ン</text><text x="917" y="131" fill="#7FA3C9" fill-opacity="0.07">F</text><text x="917" y="175" fill="#7FA3C9" fill-opacity="0.08">D</text><text x="917" y="218" fill="#7FA3C9" fill-opacity="0.09">A</text><text x="917" y="262" fill="#7FA3C9" fill-opacity="0.07">0</text><text x="917" y="306" fill="#59A0A0" fill-opacity="0.1">タ</text><text x="917" y="349" fill="#7FA3C9" fill-opacity="0.06">D</text><text x="917" y="393" fill="#7FA3C9" fill-opacity="0.07">タ</text><text x="917" y="437" fill="#7FA3C9" fill-opacity="0.09">ハ</text><text x="917" y="480" fill="#7FA3C9" fill-opacity="0.09">F</text><text x="917" y="524" fill="#7FA3C9" fill-opacity="0.08">ン</text><text x="917" y="568" fill="#7FA3C9" fill-opacity="0.07">イ</text><text x="917" y="611" fill="#59A0A0" fill-opacity="0.09">オ</text><text x="917" y="655" fill="#7FA3C9" fill-opacity="0.06">カ</text><text x="917" y="699" fill="#7FA3C9" fill-opacity="0.07">キ</text><text x="917" y="743" fill="#59A0A0" fill-opacity="0.1">9</text><text x="917" y="786" fill="#7FA3C9" fill-opacity="0.06">オ</text><text x="917" y="830" fill="#7FA3C9" fill-opacity="0.07">サ</text><text x="917" y="874" fill="#7FA3C9" fill-opacity="0.07">マ</text><text x="917" y="917" fill="#7FA3C9" fill-opacity="0.07">ア</text><text x="917" y="961" fill="#7FA3C9" fill-opacity="0.08">D</text></g><g id="c16"><animateTransform attributeName="transform" type="translate" from="0 0" to="0 1000" dur="38.6s" repeatCount="indefinite" begin="-21.9s"/><text x="1391" y="0" fill="#7FA3C9" fill-opacity="0.1">ワ</text><text x="1391" y="1000" fill="#7FA3C9" fill-opacity="0.08">イ</text><text x="1391" y="43" fill="#7FA3C9" fill-opacity="0.09">シ</text><text x="1391" y="86" fill="#7FA3C9" fill-opacity="0.09">ウ</text><text x="1391" y="129" fill="#7FA3C9" fill-opacity="0.09">エ</text><text x="1391" y="172" fill="#59A0A0" fill-opacity="0.1">ミ</text><text x="1391" y="215" fill="#7FA3C9" fill-opacity="0.1">0</text><text x="1391" y="258" fill="#7FA3C9" fill-opacity="0.07">ミ</text><text x="1391" y="302" fill="#7FA3C9" fill-opacity="0.09">マ</text><text x="1391" y="345" fill="#59A0A0" fill-opacity="0.09">7</text><text x="1391" y="388" fill="#7FA3C9" fill-opacity="0.06">サ</text><text x="1391" y="431" fill="#7FA3C9" fill-opacity="0.08">マ</text><text x="1391" y="474" fill="#7FA3C9" fill-opacity="0.09">カ</text><text x="1391" y="517" fill="#7FA3C9" fill-opacity="0.08">イ</text><text x="1391" y="560" fill="#7FA3C9" fill-opacity="0.07">タ</text><text x="1391" y="603" fill="#7FA3C9" fill-opacity="0.1">カ</text><text x="1391" y="646" fill="#7FA3C9" fill-opacity="0.08">A</text><text x="1391" y="689" fill="#7FA3C9" fill-opacity="0.1">0</text><text x="1391" y="732" fill="#7FA3C9" fill-opacity="0.1">F</text><text x="1391" y="775" fill="#7FA3C9" fill-opacity="0.07">ナ</text><text x="1391" y="819" fill="#7FA3C9" fill-opacity="0.06">8</text><text x="1391" y="862" fill="#7FA3C9" fill-opacity="0.07">0</text><text x="1391" y="905" fill="#7FA3C9" fill-opacity="0.08">D</text><text x="1391" y="948" fill="#7FA3C9" fill-opacity="0.07">ワ</text><text x="1391" y="991" fill="#7FA3C9" fill-opacity="0.07">7</text></g><g id="c17"><animateTransform attributeName="transform" type="translate" from="0 0" to="0 1000" dur="48.1s" repeatCount="indefinite" begin="-39.6s"/><text x="94" y="0" fill="#7FA3C9" fill-opacity="0.09">ヤ</text><text x="94" y="1000" fill="#7FA3C9" fill-opacity="0.09">7</text><text x="94" y="45" fill="#7FA3C9" fill-opacity="0.08">C</text><text x="94" y="90" fill="#7FA3C9" fill-opacity="0.09">ミ</text><text x="94" y="135" fill="#7FA3C9" fill-opacity="0.08">ワ</text><text x="94" y="180" fill="#7FA3C9" fill-opacity="0.1">ニ</text><text x="94" y="225" fill="#7FA3C9" fill-opacity="0.08">1</text><text x="94" y="270" fill="#7FA3C9" fill-opacity="0.09">ニ</text><text x="94" y="315" fill="#59A0A0" fill-opacity="0.1">1</text><text x="94" y="360" fill="#7FA3C9" fill-opacity="0.08">1</text><text x="94" y="405" fill="#7FA3C9" fill-opacity="0.07">B</text><text x="94" y="450" fill="#7FA3C9" fill-opacity="0.07">E</text><text x="94" y="495" fill="#59A0A0" fill-opacity="0.08">ウ</text><text x="94" y="540" fill="#7FA3C9" fill-opacity="0.09">ニ</text><text x="94" y="585" fill="#7FA3C9" fill-opacity="0.07">エ</text><text x="94" y="630" fill="#7FA3C9" fill-opacity="0.07">カ</text><text x="94" y="674" fill="#7FA3C9" fill-opacity="0.08">シ</text><text x="94" y="719" fill="#7FA3C9" fill-opacity="0.09">1</text><text x="94" y="764" fill="#7FA3C9" fill-opacity="0.07">エ</text><text x="94" y="809" fill="#7FA3C9" fill-opacity="0.09">リ</text><text x="94" y="854" fill="#7FA3C9" fill-opacity="0.06">カ</text><text x="94" y="899" fill="#7FA3C9" fill-opacity="0.07">マ</text><text x="94" y="944" fill="#7FA3C9" fill-opacity="0.08">1</text><text x="94" y="989" fill="#7FA3C9" fill-opacity="0.07">B</text></g><g id="c18"><animateTransform attributeName="transform" type="translate" from="0 0" to="0 1000" dur="42.0s" repeatCount="indefinite" begin="-24.6s"/><text x="472" y="0" fill="#7FA3C9" fill-opacity="0.07">ハ</text><text x="472" y="1000" fill="#59A0A0" fill-opacity="0.1">ア</text><text x="472" y="42" fill="#7FA3C9" fill-opacity="0.07">タ</text><text x="472" y="83" fill="#7FA3C9" fill-opacity="0.08">ン</text><text x="472" y="125" fill="#7FA3C9" fill-opacity="0.07">タ</text><text x="472" y="166" fill="#59A0A0" fill-opacity="0.11">ハ</text><text x="472" y="208" fill="#7FA3C9" fill-opacity="0.08">1</text><text x="472" y="249" fill="#7FA3C9" fill-opacity="0.08">1</text><text x="472" y="291" fill="#7FA3C9" fill-opacity="0.08">C</text><text x="472" y="332" fill="#59A0A0" fill-opacity="0.1">0</text><text x="472" y="374" fill="#7FA3C9" fill-opacity="0.06">E</text><text x="472" y="415" fill="#7FA3C9" fill-opacity="0.08">F</text><text x="472" y="457" fill="#7FA3C9" fill-opacity="0.08">キ</text><text x="472" y="498" fill="#59A0A0" fill-opacity="0.09">ミ</text><text x="472" y="540" fill="#7FA3C9" fill-opacity="0.07">ン</text><text x="472" y="581" fill="#7FA3C9" fill-opacity="0.06">キ</text><text x="472" y="623" fill="#7FA3C9" fill-opacity="0.08">イ</text><text x="472" y="664" fill="#7FA3C9" fill-opacity="0.09">7</text><text x="472" y="706" fill="#7FA3C9" fill-opacity="0.09">ウ</text><text x="472" y="747" fill="#7FA3C9" fill-opacity="0.09">0</text><text x="472" y="789" fill="#7FA3C9" fill-opacity="0.07">9</text><text x="472" y="830" fill="#7FA3C9" fill-opacity="0.1">タ</text><text x="472" y="872" fill="#7FA3C9" fill-opacity="0.09">7</text><text x="472" y="913" fill="#7FA3C9" fill-opacity="0.07">ハ</text><text x="472" y="955" fill="#7FA3C9" fill-opacity="0.09">0</text><text x="472" y="996" fill="#7FA3C9" fill-opacity="0.08">ハ</text></g><g id="c19"><animateTransform attributeName="transform" type="translate" from="0 0" to="0 1000" dur="35.1s" repeatCount="indefinite" begin="-26.2s"/><text x="386" y="0" fill="#7FA3C9" fill-opacity="0.09">0</text><text x="386" y="1000" fill="#7FA3C9" fill-opacity="0.07">サ</text><text x="386" y="47" fill="#59A0A0" fill-opacity="0.1">B</text><text x="386" y="93" fill="#7FA3C9" fill-opacity="0.09">カ</text><text x="386" y="140" fill="#7FA3C9" fill-opacity="0.07">1</text><text x="386" y="186" fill="#7FA3C9" fill-opacity="0.09">ン</text><text x="386" y="233" fill="#59A0A0" fill-opacity="0.11">F</text><text x="386" y="279" fill="#7FA3C9" fill-opacity="0.06">シ</text><text x="386" y="326" fill="#7FA3C9" fill-opacity="0.07">0</text><text x="386" y="372" fill="#7FA3C9" fill-opacity="0.09">8</text><text x="386" y="419" fill="#7FA3C9" fill-opacity="0.06">0</text><text x="386" y="465" fill="#7FA3C9" fill-opacity="0.08">8</text><text x="386" y="512" fill="#7FA3C9" fill-opacity="0.1">ア</text><text x="386" y="558" fill="#7FA3C9" fill-opacity="0.09">ワ</text><text x="386" y="605" fill="#7FA3C9" fill-opacity="0.09">ウ</text><text x="386" y="651" fill="#7FA3C9" fill-opacity="0.07">オ</text><text x="386" y="698" fill="#7FA3C9" fill-opacity="0.07">ン</text><text x="386" y="744" fill="#7FA3C9" fill-opacity="0.09">1</text><text x="386" y="791" fill="#7FA3C9" fill-opacity="0.06">1</text><text x="386" y="837" fill="#7FA3C9" fill-opacity="0.08">0</text><text x="386" y="884" fill="#7FA3C9" fill-opacity="0.09">ラ</text><text x="386" y="930" fill="#7FA3C9" fill-opacity="0.08">ナ</text><text x="386" y="977" fill="#7FA3C9" fill-opacity="0.07">サ</text></g><g id="c20"><animateTransform attributeName="transform" type="translate" from="0 0" to="0 1000" dur="41.2s" repeatCount="indefinite" begin="-23.1s"/><text x="682" y="0" fill="#7FA3C9" fill-opacity="0.09">A</text><text x="682" y="1000" fill="#7FA3C9" fill-opacity="0.08">リ</text><text x="682" y="45" fill="#7FA3C9" fill-opacity="0.06">イ</text><text x="682" y="90" fill="#7FA3C9" fill-opacity="0.09">エ</text><text x="682" y="135" fill="#7FA3C9" fill-opacity="0.08">1</text><text x="682" y="179" fill="#7FA3C9" fill-opacity="0.09">0</text><text x="682" y="224" fill="#7FA3C9" fill-opacity="0.08">ハ</text><text x="682" y="269" fill="#7FA3C9" fill-opacity="0.09">ハ</text><text x="682" y="314" fill="#7FA3C9" fill-opacity="0.08">B</text><text x="682" y="359" fill="#7FA3C9" fill-opacity="0.07">0</text><text x="682" y="404" fill="#7FA3C9" fill-opacity="0.09">ウ</text><text x="682" y="449" fill="#7FA3C9" fill-opacity="0.1">キ</text><text x="682" y="494" fill="#7FA3C9" fill-opacity="0.1">ヤ</text><text x="682" y="538" fill="#7FA3C9" fill-opacity="0.07">D</text><text x="682" y="583" fill="#7FA3C9" fill-opacity="0.08">8</text><text x="682" y="628" fill="#7FA3C9" fill-opacity="0.07">リ</text><text x="682" y="673" fill="#7FA3C9" fill-opacity="0.07">シ</text><text x="682" y="718" fill="#7FA3C9" fill-opacity="0.08">ヤ</text><text x="682" y="763" fill="#59A0A0" fill-opacity="0.09">9</text><text x="682" y="808" fill="#59A0A0" fill-opacity="0.09">0</text><text x="682" y="852" fill="#7FA3C9" fill-opacity="0.09">ワ</text><text x="682" y="897" fill="#7FA3C9" fill-opacity="0.09">タ</text><text x="682" y="942" fill="#7FA3C9" fill-opacity="0.09">カ</text><text x="682" y="987" fill="#7FA3C9" fill-opacity="0.09">D</text></g></svg>